<svg width="307" height="255" viewBox="0 0 307 255" fill="none" xmlns="http://www.w3.org/2000/svg">
<path d="M31.1955 74.2128C28.2179 62.0346 26.7938 53.0678 27.0656 40.5226C28.4825 -24.9038 68.921 4.32242 103.736 22.2775C125.451 18.9467 147.29 19.3071 168.425 25.5171C184.859 17.2805 230.23 -3.67384 241.358 20.9049C248.326 36.2961 246.079 60.7173 242.06 76.8868C255.34 112.117 250.876 136.295 214.686 152.367C222.165 165.266 227.073 178.331 231.762 192.482C249.891 180.345 266.214 158.094 290.488 162.317C304.785 164.806 309.341 180.23 305.921 192.712C300.864 211.863 284.034 221.402 266.35 226.668C271.123 230.1 279.297 229.69 283.346 234.97C284.431 242.538 261.65 245.725 256.223 246.51C191.321 255.819 123.884 257.02 58.984 247.157C51.3543 245.999 41.4835 243.488 34.5342 240.164C32.9094 239.287 32.7368 237.618 32.4937 236.078C35.421 228.733 56.0042 229.395 60.1398 225.359C55.4626 207.676 57.4916 189.978 61.3115 172.302C62.5622 166.518 65.245 157.353 65.9793 151.828C33.0849 141.504 16.623 119.044 27.4814 84.4335C28.6005 80.9846 29.839 77.5753 31.1955 74.2128Z" fill="#289BDD"/>
<path d="M60.1398 225.359C67.5767 247.718 104.538 247.948 121.113 238.366C128.753 239.157 136.435 239.474 144.113 239.323C155.33 249.524 169.585 243.2 182.473 242.848C200.953 242.344 215.718 246.711 229.636 231.344C230.469 230.431 231.278 229.495 232.062 228.546C240.896 229.021 247.315 229.236 256.123 228.244C258.506 227.977 265.111 226.726 266.35 226.668C271.123 230.1 279.298 229.69 283.346 234.97C284.431 242.538 261.65 245.725 256.223 246.51C191.321 255.819 123.884 257.02 58.984 247.157C51.3543 245.999 41.4835 243.488 34.5342 240.164C32.9095 239.287 32.7369 237.618 32.4938 236.078C35.4211 228.733 56.0042 229.395 60.1398 225.359Z" fill="#ACE7F6"/>
<path d="M36.3684 36.322C36.6575 29.9559 37.6062 15.3856 40.9226 10.8576C50.259 -1.89042 87.6472 19.8315 94.9266 25.5516L98.8853 30.1343C118.939 23.638 135.489 23.7394 156.327 27.9034C159.802 28.5976 174.425 32.8486 175.98 31.994C182.943 23.8214 218.671 11.1 230.046 16.8733C233.578 18.6661 234.846 27.0286 235.635 31.1415C237.314 46.8758 236.498 53.1296 233.261 68.4438C232.759 70.3438 231.588 74.2595 231.526 76.0451L231.468 76.7408C239.799 99.2138 244.784 119.792 223.611 136.936C211.826 145.784 191.786 154.043 177.329 156.525C178.426 157.741 180.523 157.41 182.636 157.554C190.441 157.403 196.2 156.662 203.911 155.223L206.87 159.417C213.092 170.23 216.253 181.841 220.768 190.266C222.996 208.172 228.659 233.862 202.249 235.092C198.214 235.28 194.377 235.351 190.634 233.567L190.208 232.244C191.796 228.819 194.058 223.776 193.231 220.064C192.226 218.496 191.937 217.733 190.299 216.827C185.326 218.97 183.873 228.905 177.679 233.625C172.131 238.855 159.503 241.474 152.848 236.265C151.059 234.869 151.15 232.395 151.035 230.229C151.315 223.165 153.281 214.215 150.752 207.654L149.793 207.474C146.787 211.337 143.843 224.459 142.425 229.841C135.167 230.762 132.75 230.546 125.631 229.812C125.425 225.618 125.749 209.999 120.742 209.057C117.335 212.661 117.416 222.949 117.071 228.114C114.831 243.279 81.8221 237.855 73.1682 228.308C70.8242 224.783 70.5228 223.848 69.1218 219.819C69.0534 217.956 68.6212 215.373 68.3572 213.445C66.7986 202.035 68.1486 191.28 69.454 179.928C71.0529 170.949 71.9966 163.633 75.8172 155.288C76.9284 154.432 79.0206 150.892 79.9024 149.525C62.8363 144.015 48.9406 137.605 39.0001 121.921C36.6136 117.819 35.5348 113.992 34.4955 109.417C32.9218 93.1139 35.2003 86.8903 41.2024 71.9553C39.9681 63.6575 36.8488 57.7828 36.7596 48.0268C36.3828 43.8096 36.359 40.5694 36.3684 36.322Z" fill="#ACE7F6"/>
<path d="M163.371 172.662L163.179 171.935C178.863 165.122 193.435 167.101 207.279 177.129C209.982 182.611 211.256 187.201 212.386 193.23C216.23 191.028 216.674 190.208 220.768 190.266C222.996 208.172 228.659 233.862 202.249 235.092C198.214 235.28 194.377 235.351 190.634 233.567L190.208 232.244C191.796 228.819 194.058 223.776 193.231 220.064C192.226 218.496 191.937 217.733 190.299 216.827C185.326 218.97 183.873 228.906 177.679 233.625C172.131 238.855 159.503 241.474 152.848 236.265C151.059 234.869 151.15 232.395 151.035 230.229C151.315 223.165 153.281 214.215 150.752 207.654L149.793 207.474C146.787 211.337 143.843 224.46 142.425 229.841C135.167 230.762 132.75 230.546 125.631 229.812C125.425 225.618 125.749 209.999 120.741 209.057C117.335 212.661 117.416 222.949 117.071 228.114C114.831 243.279 81.822 237.855 73.1682 228.308C70.8242 224.783 70.5228 223.848 69.1218 219.819C69.0534 217.956 68.6212 215.373 68.3572 213.445C66.7986 202.035 68.1486 191.28 69.454 179.928C69.9525 186.086 71.0788 185.518 76.5162 188.633L77.6232 182.561L77.6836 181.942C80.572 182.158 87.9636 183.985 91.649 184.532C106.874 186.784 122.775 188.309 137.778 183.942C143.751 182.201 153.84 174.201 159.399 173.978C160.834 174.266 161.982 173.381 163.371 172.662Z" fill="#41BDED"/>
<path d="M77.6231 182.561C104.231 196.633 151.357 196.848 180.155 191.834C157.361 207.755 110.265 203.122 86.4381 193.151C83.71 192.014 78.6466 189.345 76.3206 189.899L76.5162 188.633L77.6231 182.561Z" fill="#ACE7F6"/>
<path d="M78.7602 213.46C80.3785 216.057 81.612 218.085 83.0174 220.805C94.3929 230.726 103.045 229.913 117.071 228.114C114.831 243.279 81.822 237.855 73.1681 228.308C70.8241 224.783 70.5228 223.848 69.1217 219.819C72.5244 215.517 73.5767 215.143 78.7602 213.46Z" fill="#ACE7F6"/>
<path d="M78.7602 213.46C80.3785 216.057 81.612 218.085 83.0174 220.805C81.4861 227.143 80.3878 229.136 73.1681 228.308C70.8241 224.783 70.5228 223.848 69.1217 219.819C72.5244 215.517 73.5767 215.143 78.7602 213.46Z" fill="white"/>
<path d="M212.386 193.23C216.23 191.028 216.674 190.208 220.768 190.266C222.995 208.172 228.659 233.862 202.249 235.092C198.214 235.28 194.377 235.351 190.634 233.567L190.208 232.244C196.543 230.078 203.168 231.539 209.416 224.035C214.898 217.452 213.947 204.359 213.077 196.172L212.386 193.23Z" fill="#ACE7F6"/>
<path d="M212.386 193.23C216.23 191.028 216.674 190.208 220.768 190.266C219.707 194.884 217.772 195.834 213.077 196.172L212.386 193.23Z" fill="#DEF7FB"/>
<path d="M69.454 179.928C69.9525 186.086 71.0788 185.518 76.5163 188.633L76.3206 189.899C76.1674 197.553 75.4352 206.402 78.7603 213.46C73.5767 215.143 72.5245 215.517 69.1218 219.819C69.0534 217.956 68.6212 215.373 68.3572 213.445C66.7986 202.035 68.1486 191.28 69.454 179.928Z" fill="#DEF7FB"/>
<path d="M163.371 172.662C183.811 173.172 172.734 191.51 161.389 189.539C159.408 189.194 157.649 188.064 156.515 186.402C152.818 181.021 155.429 177.82 159.399 173.978C160.834 174.266 161.982 173.381 163.371 172.662Z" fill="#DEF7FB"/>
<path d="M151.035 230.229L152.075 225.28C153.133 225.157 153.474 225.236 154.347 225.841C162.046 231.143 169.679 231.258 177.679 233.625C172.131 238.855 159.503 241.474 152.848 236.265C151.059 234.869 151.15 232.395 151.035 230.229Z" fill="#ACE7F6"/>
<path d="M194.333 187.302C197.274 186.712 200.145 188.582 200.796 191.51C201.446 194.438 199.638 197.352 196.724 198.064C194.783 198.539 192.738 197.927 191.377 196.467C190.016 194.999 189.553 192.92 190.167 191.014C190.78 189.115 192.374 187.69 194.333 187.302Z" fill="#DEF7FB"/>
<path d="M88.1182 206.798C94.9365 207.999 98.0796 213.388 93.967 219.488C86.6977 219.078 84.0271 212.596 88.1182 206.798Z" fill="#DEF7FB"/>
<path d="M188.913 205.841C190.049 205.445 191.31 205.697 192.2 206.51C193.09 207.323 193.464 208.553 193.174 209.719C192.885 210.891 191.978 211.805 190.813 212.1C189.114 212.539 187.373 211.56 186.864 209.884C186.355 208.208 187.258 206.424 188.913 205.841Z" fill="#DEF7FB"/>
<path d="M46.7484 23.0905C48.3178 23.0423 51.9578 22.9459 53.3266 23.4099C59.2833 25.4272 77.439 32.4163 78.3819 38.7982C75.4194 41.6133 66.48 46.5513 62.5436 49.4045C59.6947 51.47 53.551 56.7073 51.2264 58.0317C47.7043 45.3442 46.6355 38.3162 46.7175 25.1286L46.7484 23.0905Z" fill="#41BDED"/>
<path d="M36.3683 36.322C36.6574 29.9559 37.6061 15.3856 40.9225 10.8576C50.2589 -1.89042 87.6471 19.8315 94.9265 25.5516C94.3 26.2351 90.9865 29.9969 90.0019 29.5544C84.0969 26.9012 78.2107 24.0531 72.1705 21.7179C64.1172 18.6042 56.7314 16.105 48.0609 15.3151C47.4877 17.9985 47.141 20.3826 46.7483 23.0905L46.7174 25.1286C46.2211 27.6106 46.2082 29.2731 44.4403 30.9832C42.0733 32.7939 39.0575 35.3572 36.3683 36.322Z" fill="white"/>
<path d="M175.98 31.994C182.943 23.8214 218.671 11.1 230.046 16.8733C233.578 18.6661 234.846 27.0286 235.635 31.1415C232.584 32.4645 230.368 33.681 227.043 33.7759L226.368 30.9522C225.922 28.8372 225.9 28.7523 224.728 26.9638C215.924 22.1783 190.185 35.0723 182.533 34.7702C180.021 33.3105 178.902 32.7047 175.98 31.994Z" fill="white"/>
<path d="M196.865 40.5658C204.202 34.4666 216.667 28.1652 226.368 30.9523L227.043 33.7759C227.731 47.1009 226.877 52.3224 223.805 65.1654C216.346 52.816 206.569 48.7556 196.865 40.5658Z" fill="#41BDED"/>
<path d="M223.611 136.936C220.398 138 213.482 140.677 211.192 142.95C211.211 142.302 217.49 135.835 218.306 134.936C233.326 118.382 231.272 101.626 229.733 81.2846C229.555 78.9393 230.107 78.1868 231.467 76.7408C239.799 99.2138 244.784 119.792 223.611 136.936Z" fill="#DEF7FB"/>
<path d="M41.2024 71.9552C44.6799 71.5704 43.9664 71.0768 46.0083 72.6653C47.892 78.7444 41.8252 92.0247 42.4085 101.327C41.4318 106.59 40.1947 108.454 34.4955 109.417C32.9218 93.1139 35.2003 86.8903 41.2024 71.9552Z" fill="white"/>
<path d="M199.274 159.683L206.87 159.417C213.092 170.23 216.253 181.841 220.768 190.266C216.674 190.208 216.23 191.028 212.386 193.23C211.256 187.201 209.982 182.611 207.279 177.129C205.242 170.949 201.705 165.691 199.274 159.683Z" fill="#DEF7FB"/>
<path d="M75.8171 155.288C77.1376 156.022 79.9656 157.446 80.2857 158.849C82.0601 166.64 77.3368 173.633 77.6835 181.942L77.6231 182.561L76.5162 188.633C71.0788 185.518 69.9524 186.086 69.454 179.928C71.0528 170.949 71.9965 163.633 75.8171 155.288Z" fill="white"/>
<path d="M36.3683 36.3219C39.0575 35.3572 42.0733 32.7939 44.4403 30.9832C42.9357 36.5615 41.6447 45.1499 36.7596 48.0268C36.3827 43.8096 36.359 40.5694 36.3683 36.3219Z" fill="#DEF7FB"/>
<path d="M203.911 155.223L206.87 159.417L199.274 159.683C195.134 158.813 187.24 158.187 182.636 157.554C190.441 157.403 196.2 156.662 203.911 155.223Z" fill="#76D3F4"/>
<path d="M231.526 76.0451C228.086 74.6739 225.131 71.2272 225.848 67.3165L227.392 66.4035C230.259 66.2028 230.9 66.8532 233.261 68.4438C232.758 70.3438 231.588 74.2595 231.526 76.0451Z" fill="#ACE7F6"/>
<path d="M196.651 118.296C177.853 135.576 147.544 107.756 167.243 86.9068C172.388 81.4615 167.795 81.922 167.641 77.3854L168.935 76.2077C171.889 76.6027 175.017 80.358 177.727 81.1716C195.856 86.614 207.728 88.2608 201.699 110.843C198.972 113.971 198.477 114.593 196.651 118.296Z" fill="#1B477E"/>
<path d="M174.247 87.3859C177.246 86.642 180.281 88.4679 181.032 91.4664C181.782 94.4649 179.964 97.5052 176.968 98.2627C173.962 99.0224 170.91 97.1966 170.157 94.188C169.405 91.1794 171.237 88.1319 174.247 87.3859Z" fill="white"/>
<path d="M66.0598 110.584C58.779 89.6219 70.6831 85.4219 87.9693 81.1904C91.5648 80.3105 96.9741 74.8998 99.941 76.4113C100.146 78.963 97.4395 81.4716 97.5718 81.8724C98.7578 85.4536 103.196 88.5233 104.572 91.8787C110.264 105.755 101.545 121.36 86.4733 123.08C82.3974 123.54 75.1647 120.914 72.4956 117.883C70.8356 114.898 68.9958 112.354 66.0598 110.584Z" fill="#1B477E"/>
<path d="M90.755 87.291C93.555 86.1421 96.7606 87.4306 97.9884 90.1974C99.2154 92.9643 98.0193 96.206 95.2891 97.5124C93.4521 98.3908 91.2836 98.2017 89.6272 97.0182C87.9701 95.8348 87.0869 93.8442 87.322 91.8212C87.5565 89.7989 88.8713 88.0637 90.755 87.291Z" fill="white"/>
<path d="M201.699 110.843C208.378 111.312 210.971 111.376 215.036 117.407C217.343 120.274 219.527 123.626 219.009 127.367C217.726 136.648 202.938 136.9 198.548 129.943C197.155 127.734 195.965 123.231 197.201 120.95L196.651 118.296C198.477 114.594 198.972 113.971 201.699 110.843Z" fill="#41BDED"/>
<path d="M201.699 110.843C208.378 111.312 210.971 111.376 215.036 117.407C210.963 125.468 203.22 130.281 197.201 120.95L196.651 118.296C198.477 114.594 198.972 113.971 201.699 110.843Z" fill="white"/>
<path d="M66.0598 110.584C68.9958 112.354 70.8356 114.898 72.4956 117.883L71.8914 120.288C73.3112 123.108 72.0885 128.382 69.8617 130.353C59.8363 139.238 41.6927 129.274 54.3952 116.676C59.1767 111.44 59.1897 111.098 66.0598 110.584Z" fill="#41BDED"/>
<path d="M66.0599 110.584C68.9958 112.354 70.8356 114.898 72.4956 117.883L71.8915 120.288C65.6406 129.511 58.5359 124.447 54.3953 116.676C59.1768 111.44 59.1897 111.098 66.0599 110.584Z" fill="white"/>
<path d="M101.469 37.4493C105.815 37.2658 109.733 36.9406 111.377 41.6643C110.617 48.788 103.109 51.2857 97.236 52.5483C92.8573 52.7915 88.9554 53.4864 87.1034 48.7663C87.9435 41.8851 95.6465 38.8478 101.469 37.4493Z" fill="white"/>
<path d="M73.1307 53.8512C76.3011 53.6678 77.321 53.8721 79.3794 56.0929C80.7323 62.613 70.5529 69.1812 65.8541 71.9956C63.4152 72.3704 61.8365 71.4812 60.3627 69.7251C59.6831 62.7086 67.6601 56.7915 73.1307 53.8512Z" fill="white"/>
<path d="M132.307 113.79C138.471 113.399 152.063 116.449 149.633 124.698C145.38 126.094 143.868 122.015 138.379 119.317L137.685 118.979C129.599 118.404 121.949 126.598 118.711 123.972C117.888 117.848 127.594 114.845 132.307 113.79Z" fill="#1B477E"/>
<path d="M96.0284 156.532C99.2915 155.806 102.535 157.835 103.316 161.079C104.096 164.331 102.127 167.611 98.8895 168.446C96.7469 169 94.4719 168.352 92.9392 166.755C91.4073 165.158 90.8549 162.863 91.495 160.741C92.1351 158.619 93.8685 157.014 96.0284 156.532Z" fill="white"/>
<path d="M121.245 32.9688C125.53 32.7767 127.915 32.8925 129.227 37.3191C128.984 40.0478 128.213 40.6687 126.451 42.7427C121.963 42.7248 118.828 42.6428 117.813 37.8838C118.479 35.2306 119.243 34.8364 121.245 32.9688Z" fill="white"/>
<path d="M261.294 179.028C270.841 170.41 289.694 161.216 298.019 176.338C301.777 199.179 280.917 211.863 262.494 218.244C253.515 220.704 242.391 220.438 233.159 220.107C233.614 213.978 233.24 208.316 232.97 202.186C237.377 199.604 242.89 196.669 246.636 193.345C251.677 188.575 256.49 184.028 261.294 179.028Z" fill="#76D3F4"/>
<path d="M298.019 176.338C301.777 199.179 280.917 211.863 262.494 218.244C258.753 217.265 256.366 217.589 252.488 217.783L255.322 216.783C269.318 211.798 294.834 202.51 287.388 183.194C286.811 180.978 286.028 179.906 284.874 177.949C289.937 178.856 294.298 182.417 296.775 182.475C298.378 180.439 297.869 179.41 298.019 176.338Z" fill="#ACE7F6"/>
<path d="M261.293 179.028C270.841 170.41 289.694 161.216 298.018 176.338C297.869 179.41 298.378 180.439 296.775 182.475C294.298 182.417 289.937 178.856 284.874 177.949C280.484 177.546 278.31 177.561 274.047 178.367C269.575 178.266 266.367 179.467 261.293 179.028Z" fill="white"/>
<path d="M261.294 179.028C266.367 179.467 269.576 178.266 274.047 178.367C273.923 179.28 273.702 179.611 273.987 180.216L273.475 185.064L272.881 182.151C267.898 181.446 254.884 194.28 246.636 193.345C251.677 188.575 256.49 184.028 261.294 179.028Z" fill="#ACE7F6"/>
<path d="M274.047 178.367C278.31 177.561 280.484 177.547 284.875 177.949C286.028 179.906 286.811 180.978 287.388 183.194L285.722 184.604C280.714 188.935 278.458 188.978 273.475 185.064L273.987 180.216C273.702 179.611 273.923 179.28 274.047 178.367Z" fill="#DEF7FB"/>
<path d="M274.047 178.367C278.31 177.561 280.484 177.547 284.874 177.949C286.028 179.906 286.811 180.978 287.388 183.194L285.722 184.604C281.905 178.77 280.779 178.539 273.987 180.216C273.702 179.611 273.923 179.28 274.047 178.367Z" fill="#ACE7F6"/>
<path d="M36.7049 156.914C37.4191 156.856 38.134 156.806 38.8497 156.77C41.782 156.633 42.5962 156.727 44.7215 158.676C46.8886 164.892 41.006 169.87 36.4122 173.122C33.1799 173.237 31.4063 172.885 28.9544 170.784C25.8559 163.885 31.5739 160.122 36.7049 156.914Z" fill="#76D3F4"/>
<path d="M262.345 106.696C273.036 111.62 268.47 126.461 261.178 133.058C260.277 133.087 258.841 132.972 257.892 132.928L256.961 131.885C257.348 127.979 261.4 125.619 262.219 121.288C263.207 116.068 262.744 111.927 262.345 106.696Z" fill="#41BDED"/>
<path d="M11.6358 107.637C12.5421 109.689 11.8688 119.116 12.9801 122.367C14.4329 126.619 16.9819 127.756 18.8224 132.022L18.2621 133.353L15.3176 134.303C5.15835 127.54 4.48802 116.95 11.6358 107.637Z" fill="#41BDED"/>
<path d="M258.908 48.9052C266.107 48.98 276.94 51.6052 269.943 60.8079C265.216 60.572 258.287 57.7188 256.783 52.8534C257.236 50.1549 256.803 51.1901 258.908 48.9052Z" fill="#41BDED"/>
<path d="M9.25592 51.9714C13.193 51.5642 15.8981 50.5865 18.8419 53.5153L18.6974 55.4447C17.3359 58.1576 14.6495 59.5087 12.0602 61.2094C8.22743 62.7806 7.23991 63.2569 4.1666 60.7065C2.41741 55.7649 5.45619 54.0009 9.25592 51.9714Z" fill="#76D3F4"/>
<path d="M269.32 27.9502C272.861 27.8969 274.276 27.9933 276.504 30.848C277.031 33.5645 277.163 32.4695 276.016 34.9753C274.069 36.7594 273.289 36.7292 270.638 37.1738C269.494 37.1069 268.351 37.0198 267.211 36.9112C264.297 36.6126 263.787 36.2896 262.178 34.3156L262.41 32.5933C264.096 30.1257 266.603 29.2573 269.32 27.9502Z" fill="#76D3F4"/>
<path d="M3.26535 31.6005C7.54769 31.6364 13.0671 32.2695 14.8853 36.8759C14.0963 39.4313 14.607 38.527 12.0314 40.314C7.61817 40.4982 1.39245 41.3118 0 36.0723C0.641561 33.6414 1.32197 33.2717 3.26535 31.6005Z" fill="#41BDED"/>
<path d="M240.332 154.425C244.634 154.432 249.51 155.058 251.217 159.648C251.016 162.647 251.254 161.518 249.315 164.46C243.201 164.791 237.292 161.273 240.332 154.425Z" fill="#76D3F4"/>
<path d="M1.6205 126.439C2.76121 127.346 4.0695 130.151 4.75062 131.633C6.64437 135.763 11.4395 138.713 11.195 143.159C1.64352 141.561 -2.17852 135.353 1.6205 126.439Z" fill="#41BDED"/>
<path d="M272.884 126.144C281.11 129.432 272.087 139.921 266.512 142.662L264.719 141.605C264.071 139.971 265.938 138.173 267.093 136.705C269.878 133.144 271.306 130.31 272.884 126.144Z" fill="#41BDED"/>
</svg>
