<svg width="293" height="282" viewBox="0 0 293 282" fill="none" xmlns="http://www.w3.org/2000/svg">
<path d="M39.4392 167.277C32.6251 163.271 26.6094 159.925 20.3082 155.041C-3.49574 137.088 -4.23654 107.903 7.11807 82.6194C12.9238 69.6922 11.7406 68.5275 12.2254 54.9428C12.7742 41.5783 13.7329 15.0276 22.4968 4.33996C35.4985 -11.5152 75.5939 20.5548 84.6217 28.8713C104.956 26.295 115.646 26.603 135.635 29.459C137.973 27.3094 141.49 24.0872 144.381 22.0325C156.342 13.529 177.667 0.706927 192.829 1.81986C195.641 2.02561 199.331 5.47017 200.604 7.84568C210.817 26.9022 208.933 48.9746 210.738 69.68C211.033 73.0181 216.032 83.0676 217.441 87.1668C221.893 100.139 224.95 116.824 221.836 130.237C218.074 146.454 206.236 155.443 193.074 163.598C200.755 176.557 207.084 190.271 211.968 204.524C219.103 198.116 225.892 187.808 231.431 178.735C243.924 158.265 287.164 142.556 291.962 176.96C293.724 189.601 287.682 203.497 279.396 213.654C262.746 234.052 240.845 241.561 215.492 244.391C214.651 247.102 213.629 249.262 212.471 251.842C220.973 253.133 240.522 255.644 246.319 262.116C249.397 273.168 209.954 276.408 201.92 277.432C153.451 283.295 104.457 283.283 55.9932 277.396C48.119 276.432 17.7736 273.425 15.5404 264.395C17.5125 258.492 33.4177 255.584 39.3522 254.413C28.2198 231.407 35.4956 191.624 39.4392 167.277Z" fill="#289BDD"/>
<path d="M148.315 266.927C164.541 272.233 187.097 270.351 202.424 262.733C207.228 260.345 209.537 256.128 212.471 251.842C220.973 253.133 240.522 255.644 246.319 262.116C249.397 273.168 209.954 276.408 201.92 277.432C153.451 283.295 104.457 283.283 55.9931 277.396C48.1189 276.432 17.7735 273.425 15.5403 264.395C17.5124 258.492 33.4177 255.584 39.3521 254.413C49.1373 272.402 71.046 274.105 87.7532 264.929C94.7982 265.256 101.384 265.213 108.44 265.158C119.92 273.206 135.707 271.378 148.315 266.927Z" fill="#ACE7F6"/>
<path d="M20.7519 32.0043C22.025 4.43707 29.3238 -0.516805 53.4133 13.747C63.0065 19.4275 69.2732 24.7432 78.0112 31.4539C78.8333 32.0733 79.8402 32.8316 81.0334 33.7302C84.4462 33.3999 89.7154 32.9381 92.957 32.6352C102.168 31.6978 111.434 31.4309 120.682 31.8367C124.271 32.0295 137.987 34.6359 139.886 33.3949C145.194 25.6109 181.602 3.05005 193.527 8.46867C197.216 10.1427 199.525 23.744 200.539 28.3151C201.568 34.2827 202.172 40.3164 202.345 46.3703C202.639 54.4119 201.381 69.7397 204.243 76.4216C215.679 97.5587 220.606 130.589 199.59 147.665C195.584 151.201 192.886 153.578 188.082 156.211C186.154 158.025 181.825 160.033 179.3 161.343L183.623 165.651L186.406 170.814C195.641 183.828 202.488 202.213 205.545 217.823C205.905 220.961 206.523 225.2 206.681 228.258C206.2 253.434 196.742 261.442 170.252 262.228C166.282 262.346 159.406 260.88 156.687 257.809C158.349 253.665 161.341 239.572 158.557 235.98L157.414 235.967C153.033 241.427 151.207 251.139 146.783 257.374C141.555 262.673 135.973 263.845 128.63 264.15C114.825 264.722 115.555 259.366 116.191 248.469C117.291 242.203 119.165 231.59 117.675 225.442L116.257 224.287L116.631 223.83C112.507 228.309 108.984 249.149 107.526 256.259C100.728 257.056 98.9339 256.775 92.2572 256.272C92.2428 250.459 91.9766 228.783 88.9192 224.911L87.6972 224.214C82.8653 227.986 88.5941 246.858 83.4659 256.833C82.0217 258.549 81.0795 259.825 79.2886 261.211C63.6617 266.766 50.1875 257.753 44.8817 242.985C41.5552 230.173 41.2509 179.84 48.2858 170.289C50.0681 169.08 50.4881 168.525 50.819 166.55C48.4743 161.889 37.0506 159.957 31.5758 154.051C23.68 148.061 21.5079 146.013 16.1797 137.752C11.3874 130.601 9.7066 125.137 9.30167 116.542C9.09812 101.875 11.0422 88.5819 19.1408 75.9749C22.3537 70.2181 19.4702 43.5883 20.7519 32.0043Z" fill="#ACE7F6"/>
<path d="M179.322 171.314C181.494 170.648 184.083 170.822 186.406 170.814C195.641 183.828 202.488 202.213 205.545 217.823C205.905 220.961 206.523 225.2 206.681 228.258C206.2 253.434 196.742 261.442 170.252 262.228C166.282 262.346 159.406 260.88 156.687 257.809C158.349 253.665 161.341 239.572 158.557 235.98L157.414 235.967C153.033 241.427 151.207 251.139 146.783 257.374C141.555 262.673 135.973 263.845 128.63 264.15C114.825 264.722 115.555 259.366 116.191 248.469C117.291 242.203 119.165 231.59 117.675 225.442L116.257 224.287L116.631 223.83C112.507 228.309 108.984 249.149 107.526 256.259C100.728 257.056 98.9339 256.775 92.2572 256.272C92.2428 250.459 91.9766 228.783 88.9192 224.911L87.6972 224.214C82.8653 227.986 88.5941 246.858 83.4659 256.833C82.0217 258.549 81.0795 259.825 79.2886 261.211C63.6617 266.766 50.1875 257.753 44.8817 242.985C41.5552 230.173 41.2509 179.84 48.2858 170.289C50.4334 171.715 51.7748 171.984 52.3754 174.532C53.1428 177.788 51.1261 188.398 49.912 191.234C53.0091 190.054 61.7657 192.142 64.4838 193.768C79.8532 196.995 95.5419 198.98 111.246 197.262C136.987 194.444 161.751 176.037 187.154 188.567C185.572 183.4 182.328 175.794 179.322 171.314Z" fill="#41BDED"/>
<path d="M49.9119 191.234C53.0089 190.054 61.7656 192.142 64.4836 193.768L64.9109 194.916C90.9494 203.105 125.35 205.625 152.523 204.377C155.378 204.246 164.678 204.249 166.886 203.56L166.807 204.162C130.082 218.574 84.2174 212.953 50.3707 193.388L49.9119 191.234Z" fill="#63E7FA"/>
<path d="M197.195 223.001C199.906 220.141 201.827 218.862 205.545 217.823C205.905 220.961 206.523 225.2 206.681 228.258C206.2 253.434 196.742 261.442 170.252 262.228C166.282 262.346 159.406 260.88 156.687 257.809C165.534 255.213 180.329 257.982 188.823 250.235C195.9 243.777 196.439 234.756 197.151 225.935L197.195 223.001Z" fill="#ACE7F6"/>
<path d="M197.195 223.001C199.906 220.141 201.827 218.862 205.545 217.823C205.905 220.961 206.523 225.2 206.681 228.258C201.999 228.661 200.812 228.475 197.151 225.935L197.195 223.001Z" fill="#DEF7FB"/>
<path d="M48.2858 170.289C50.4334 171.715 51.7748 171.984 52.3754 174.532C53.1428 177.788 51.1261 188.398 49.912 191.234L50.3709 193.388C49.456 205.1 48.3851 219.959 51.4318 231.4C51.9755 233.242 52.5056 235.225 53.2133 236.998C51.7266 239.474 47.5162 241.777 44.8817 242.985C41.5552 230.173 41.2509 179.84 48.2858 170.289Z" fill="#DEF7FB"/>
<path d="M179.322 171.315C181.494 170.648 184.083 170.822 186.406 170.814C195.641 183.828 202.488 202.213 205.545 217.823C201.827 218.862 199.906 220.141 197.195 223.001C196.188 211.159 194.462 198.422 187.154 188.567C185.572 183.4 182.328 175.794 179.322 171.315Z" fill="#ACE7F6"/>
<path d="M53.2132 236.998C56.5663 243.759 62.5396 255.625 71.9954 253.182C72.9247 257.073 73.9704 257.956 77.3005 260.02C77.9572 260.427 78.6203 260.824 79.2885 261.211C63.6616 266.766 50.1874 257.753 44.8816 242.985C47.5162 241.777 51.7266 239.474 53.2132 236.998Z" fill="#ACE7F6"/>
<path d="M116.191 248.469C114.41 248.123 149.365 258.684 146.783 257.374C141.554 262.673 135.973 263.845 128.63 264.15C114.825 264.722 115.555 259.366 116.191 248.469Z" fill="#ACE7F6"/>
<path d="M166.886 203.56C168.44 200.211 170.554 196.317 174.165 195.262C193.642 189.571 185.824 217.142 172.287 212.517C169.518 211.571 167.447 207.11 166.807 204.162L166.886 203.56Z" fill="#DEF7FB"/>
<path d="M51.4316 231.4C59.3051 235.753 70.039 241.719 71.4495 251.202L72.5341 252.384L71.9954 253.182C62.5396 255.625 56.5663 243.759 53.2132 236.998C52.5055 235.225 51.9754 233.242 51.4316 231.4Z" fill="#76D3F4"/>
<path d="M72.5341 252.384C77.9341 250.942 81.7899 250.104 83.4658 256.833C82.0215 258.549 81.0794 259.825 79.2884 261.211C78.6203 260.824 77.9571 260.427 77.3004 260.02C73.9704 257.956 72.9246 257.073 71.9954 253.182L72.5341 252.384Z" fill="#DEF7FB"/>
<path d="M64.0154 214.913C69.5672 215.765 71.7544 219.954 69.7628 225.143C62.8409 224.468 61.7584 220.921 64.0154 214.913Z" fill="#DEF7FB"/>
<path d="M146.431 193.578C149.905 193.447 151.358 193.29 153.609 195.982C153.659 198.608 153.681 197.75 151.962 200.35C149.128 200.522 147.323 200.467 145.438 198.207C145.05 195.438 144.971 196.562 146.431 193.578Z" fill="#DEF7FB"/>
<path d="M204.243 76.4216C215.679 97.5587 220.606 130.589 199.59 147.665C195.584 151.201 192.886 153.578 188.082 156.211C186.154 158.025 181.825 160.033 179.3 161.343L183.623 165.651L186.406 170.814C184.083 170.822 181.494 170.648 179.322 171.314L178.833 171.635L174.639 169.039C170.734 168.687 161.887 168.907 157.615 168.894C175.833 160.418 190.7 152.776 200.158 133.942C203.668 126.963 204.926 115.891 206.171 108.32L207.135 107.723C206.307 99.5537 203.279 90.6437 202.431 82.2913C202.064 78.6892 202.316 78.7914 204.243 76.4216Z" fill="#76D3F4"/>
<path d="M204.243 76.4216C215.679 97.5587 220.606 130.589 199.59 147.665L197.396 146.503C197.871 145.957 198.331 145.397 198.777 144.823C208.523 132.344 208.933 122.745 207.135 107.723C206.307 99.5537 203.279 90.6437 202.431 82.2913C202.064 78.6892 202.316 78.7914 204.243 76.4216Z" fill="white"/>
<path d="M183.623 165.651L186.406 170.814C184.083 170.822 181.494 170.648 179.322 171.315L178.833 171.635L174.639 169.039C179.465 167.029 178.128 166.465 183.623 165.651Z" fill="#76D3F4"/>
<path d="M188.082 156.211C189.19 153.777 195.166 148.604 197.396 146.503L199.59 147.665C195.584 151.201 192.886 153.578 188.082 156.211Z" fill="#DEF7FB"/>
<path d="M139.886 33.3949C145.194 25.6109 181.602 3.05005 193.527 8.46868C197.216 10.1428 199.525 23.744 200.539 28.3152C196.929 30.6979 196.145 31.2417 191.656 30.5015L190.326 24.1354C189.945 21.7311 190.031 20.5476 188.348 18.834C180.559 16.5944 153.551 31.1597 146.848 36.0453C143.942 34.4661 143.18 33.9165 139.886 33.3949Z" fill="white"/>
<path d="M31.0161 23.262C40.7445 23.8282 51.5777 30.0007 57.8624 37.0783C58.9139 38.274 59.9381 39.4934 60.9321 40.7373C51.6043 44.5969 38.5753 53.3723 31.5095 60.4852C29.5474 49.2335 29.4021 41.0013 30.2789 29.5504L31.0161 23.262Z" fill="#41BDED"/>
<path d="M160.024 39.2783C166.778 32.282 180.07 23.0267 190.326 24.1353L191.656 30.5014C192.771 41.9286 192.872 49.8666 191.52 61.1981C180.566 49.7853 174.193 45.1652 160.024 39.2783Z" fill="#41BDED"/>
<path d="M20.7518 32.0043C22.0249 4.43707 29.3237 -0.516805 53.4132 13.747C63.0064 19.4275 69.2731 24.7432 78.0111 31.4539C76.3231 32.4403 74.5487 33.4043 72.8377 34.3647C66.9341 29.7547 40.1691 12.7031 33.4759 15.1628C31.8216 17.4693 31.5756 20.3843 31.0161 23.262L30.2789 29.5504C26.3864 32.046 25.4384 33.1482 20.7518 32.0043Z" fill="white"/>
<path d="M19.1408 75.9749C21.5467 76.5001 22.245 76.2324 23.8 77.7756C23.5742 79.7683 22.7982 82.4208 21.9142 84.174C17.0529 93.8207 17.9375 109.049 15.0584 118.159L9.30167 116.542C9.09812 101.875 11.0422 88.5819 19.1408 75.9749Z" fill="white"/>
<path d="M9.30151 116.542L15.0583 118.159C15.7926 124.563 20.1893 130.922 18.5617 136.627L16.1796 137.752C11.3873 130.601 9.70644 125.137 9.30151 116.542Z" fill="#ACE7F6"/>
<path d="M18.5618 136.627C19.0674 137.384 20.1564 138.916 20.4822 139.634C22.7025 144.517 31.247 148.598 31.5757 154.051C23.6799 148.061 21.5078 146.013 16.1797 137.752L18.5618 136.627Z" fill="#DEF7FB"/>
<path d="M60.9839 87.4323C80.4178 87.674 84.4541 111.253 72.4061 123.087C70.5066 124.953 67.2211 126.401 64.8095 127.553C40.6388 127.794 39.8578 94.4746 60.9839 87.4323Z" fill="#1B477E"/>
<path d="M66.4811 94.289C67.9124 93.7149 69.5408 93.9552 70.7462 94.917C71.9509 95.8782 72.5465 97.4141 72.3048 98.9371C72.0638 100.46 71.0224 101.736 69.5789 102.277C67.3816 103.102 64.9297 102.004 64.081 99.8148C63.2323 97.6263 64.3026 95.1616 66.4811 94.289Z" fill="white"/>
<path d="M150.559 88.1812C165.965 85.9711 173.863 100.445 170.518 114.214C168.871 121 164.865 124.142 158.996 127.432C136.959 130.222 130.025 98.0947 150.559 88.1812Z" fill="#1B477E"/>
<path d="M151.3 94.3919C153.422 93.4214 155.932 94.2991 156.989 96.3818C158.047 98.4638 157.27 101.009 155.234 102.149C153.839 102.93 152.134 102.884 150.782 102.03C149.43 101.176 148.66 99.6508 148.768 98.0566C148.876 96.4631 149.847 95.0559 151.3 94.3919Z" fill="white"/>
<path d="M35.6113 119.942C41.6745 120.318 48.6655 121.779 50.511 128.591C49.6803 133.826 46.4222 134.445 41.7155 135.376L34.0865 134.657C24.1977 128.338 24.7005 123.176 35.6113 119.942Z" fill="#FDABAF"/>
<path d="M76.1562 41.5078C80.9118 41.0049 85.2812 40.1229 88.6623 44.0163C90.3266 51.2608 82.9465 53.2522 77.4926 54.8773C72.888 55.5543 68.1554 56.7939 65.5043 51.9565C64.3413 45.348 71.0158 42.8027 76.1562 41.5078Z" fill="white"/>
<path d="M179.804 121.271C194.023 120.428 198.072 131.896 182.968 135.565C166.8 136.127 164.354 125.53 179.804 121.271Z" fill="#FDABAF"/>
<path d="M53.1291 54.2673C56.0572 54.1543 56.4204 54.1702 58.996 55.5421C63.5243 62.2945 50.2242 70.5433 45.4319 73.4778C43.2094 74.0253 41.5875 73.7152 39.6391 72.726C36.3687 65.5045 47.5464 57.2234 53.1291 54.2673Z" fill="white"/>
<path d="M109.163 117.348C117.182 127.455 117.095 122.75 125.17 118.915C127.019 120.097 126.465 119.915 127.306 122.653C120.84 132.541 117.491 126.845 109.99 126.371C104.647 126.033 95.1298 131.204 91.1574 123.811C91.1171 120.845 91.0625 120.379 92.606 117.882C94.038 118.976 95.1363 120.594 96.4431 121.756C101.823 126.535 105.926 120.866 109.163 117.348Z" fill="#1B477E"/>
<path d="M64.0436 174.057C65.8323 173.22 67.9354 173.429 69.5256 174.6C71.1159 175.771 71.9401 177.717 71.6733 179.675C71.4064 181.632 70.0924 183.287 68.2469 183.989C65.5339 185.022 62.4908 183.723 61.3594 181.05C60.2273 178.376 61.414 175.286 64.0436 174.057Z" fill="white"/>
<path d="M98.4454 38.3538C102.223 38.0193 104.738 37.9308 106.397 41.6624C106.25 44.2279 105.751 44.4976 104.035 46.6206C100.287 46.7667 97.8643 46.6674 95.9734 43.1941C96.4409 40.0502 96.0604 41.2329 98.4454 38.3538Z" fill="white"/>
<path d="M235.631 185.943C243.348 172.688 269.413 150.736 281.115 170.863C287.61 194.607 265.63 219.025 244.974 227.532C236.357 232.123 226.288 233.945 216.715 235.125C216.442 228.31 215.765 221.518 214.672 214.786C220.548 209.895 224.907 205.112 229.265 198.766C231.387 194.17 233.178 190.408 235.631 185.943Z" fill="#76D3F4"/>
<path d="M235.631 185.943C243.348 172.688 269.413 150.736 281.115 170.863C287.61 194.607 265.63 219.025 244.974 227.532C241.924 227.286 237.422 228.112 234.243 228.565C249.052 220.708 284.079 202.631 261.099 182.963C257.524 182.21 254.288 181.842 250.663 181.398L247.606 182.637C244.24 183.661 237.99 186.498 235.631 185.943Z" fill="#ACE7F6"/>
<path d="M235.631 185.943C243.348 172.688 269.413 150.736 281.115 170.863L279.691 175.204C277.641 175.362 273.844 174.385 271.535 173.89C264.364 172.351 256.122 177.013 250.663 181.398L247.606 182.637C244.24 183.661 237.99 186.498 235.631 185.943Z" fill="white"/>
<path d="M235.631 185.943C237.99 186.498 244.24 183.661 247.606 182.637C244.254 186.176 233.84 197.7 229.992 199.098L229.266 198.766C231.387 194.17 233.178 190.408 235.631 185.943Z" fill="#ACE7F6"/>
</svg>
