<svg width="345" height="326" viewBox="0 0 345 326" fill="none" xmlns="http://www.w3.org/2000/svg">
<path d="M84.8644 0C103.075 0.436684 126.131 17.2702 139.564 28.7204C159.576 25.1486 177.112 26.132 196.863 29.8974C209.172 21.5155 224.796 13.3876 239.353 9.94086C244.394 8.74735 252.456 8.01284 256.385 11.3847C271.302 24.1881 266.826 62.0458 268.257 79.3485C268.412 81.2189 272.687 91.8907 273.559 94.6281C275.619 101.095 276.556 106.176 277.86 112.65C301.93 104.412 321.42 115.513 317.471 141.757C314.273 163.008 284.907 181.889 268.441 192.542C268.972 200.577 269.033 208.693 269.169 216.749C281.201 203.92 295.046 198.282 309.977 209.757C317.108 224.659 308.586 238.189 297.349 247.746C289.271 254.617 282.751 257.321 273.247 261.301C268.309 262.76 260.807 264.177 255.592 265.302C251.339 270.111 248.96 275.162 243.779 279.476C224.932 295.165 206.636 293.549 193.55 272.301C173.089 278.928 166.371 279.096 144.765 279.171C144.856 287.316 143.367 299.11 134.774 302.967C96.6779 320.07 66.4454 253.711 63.982 224.833C63.5174 218.913 63.3325 212.975 63.4282 207.038C63.5965 199.237 65.5557 188.525 63.7224 180.833C62.6435 178.471 58.2475 175.66 56.2559 174.367C39.251 163.513 16.4806 140.607 23.2357 118.582C28.3401 101.94 42.3113 97.3856 57.7225 102.402C59.3918 91.4217 65.9261 79.7521 66.8662 71.2313C68.7786 53.887 61.7408 6.05818 84.8644 0Z" fill="#289BDD"/>
<path d="M76.1724 26.2435C78.005 15.6775 78.379 2.82728 93.1673 6.98046C103.784 9.96171 127.084 22.5054 133.693 31.4362L133.802 32.3707C134.691 33.4916 134.479 33.7355 135.823 33.7534C145.268 33.8218 154.796 31.6333 164.247 31.5786C172.162 31.5333 180.217 32.6225 188.066 33.3153C191.824 33.6462 201.761 36.0081 204.491 34.9556L204.881 33.3319C210.548 26.6255 242.308 11.348 251.995 15.7616C256.366 17.753 257.986 29.583 258.906 34.6678C259.316 37.8023 259.973 41.9627 259.993 45.0238C261.609 55.31 259.764 67.0213 259.837 77.3449L260.919 79.965C266.525 93.8065 269.487 102.85 269.317 117.975L263.855 123.77C256.828 132.291 251.338 138.707 247.829 149.295C247.113 151.455 245.534 153.695 245.686 155.955C251.857 155.291 261.878 131.893 272.312 124.911L272.657 124.436C293.026 105.691 318.293 120.112 307.725 145.17C301.687 161.526 274.82 181.102 259.761 189.613L259.913 202.947C260.252 210.228 259.351 229.407 255.476 235.482L254.438 235.656C253.882 234.425 253.498 233.702 253.201 232.358C240.437 218.451 224.576 221.504 210.562 232.631C207.369 235.166 206.144 237.742 205.751 241.803L206.25 242.782C204.91 245.485 204.27 246.481 203.903 249.56C202.867 256.037 203.124 252.982 199.369 258.686C178.791 272.056 140.897 276.703 117.607 268.679L117.385 269.787C121.213 273.13 129.465 275.633 134.408 277.236C135.679 286.75 136.804 298.57 123.283 300.068C115.02 300.984 103.096 292.308 98.8816 285.635C97.8804 283.892 95.9565 281.482 94.7021 279.796C88.9094 274.12 81.2488 254.768 78.5941 246.804C72.2604 230.358 70.5781 198.111 75.6071 181.059C74.644 177.442 71.8505 175.969 68.8757 174.025C55.0584 164.996 34.0984 148.191 31.2185 131.126C25.9616 107.067 47.3755 99.141 65.3716 113.57L65.7952 114.469C78.3883 121.132 86.2669 141.032 98.1753 151.262C92.6767 134.497 83.5194 122.025 71.0687 109.899C69.1792 108.472 66.7777 106.361 64.9077 104.806C67.4286 91.6361 69.1461 86.8059 76.0041 75.2478C78.6358 70.2659 75.6653 55.2035 75.7265 48.3309C75.4949 41.731 75.6588 32.77 76.1724 26.2435Z" fill="#ACE7F6"/>
<path d="M77.3296 177.328C83.838 178.65 85.2628 183.515 85.4577 189.328C84.4357 193.158 84.1717 194.76 83.7445 198.711L83.8826 199.309L84.5788 199.14C93.6995 196.908 111.883 212.852 122.339 216.548C146.071 224.936 171.107 225.223 195.318 219.306C203.631 217.362 211.616 214.213 219.018 209.959C215.558 210.329 212.303 210.698 208.862 211.217L208.272 208.526C209.649 207.324 210.207 205.434 209.703 203.677C209.2 201.919 207.725 200.612 205.92 200.324L207.124 199.664L203.716 199.317L202.647 197.521L203.772 197.668C205.619 198.112 221.321 195.727 224.976 195.375C230.436 194.848 242.134 196.068 245.637 195.284L247.953 195.818L251.875 197.639C254.696 199.386 257.269 200.929 259.913 202.947C260.252 210.228 259.351 229.407 255.476 235.482L254.438 235.656C253.882 234.425 253.498 233.702 253.201 232.358C240.437 218.451 224.576 221.504 210.562 232.631C207.369 235.166 206.144 237.742 205.751 241.803L206.249 242.782C204.91 245.485 204.27 246.481 203.903 249.56C202.867 256.037 203.124 252.982 199.369 258.686C178.791 272.056 140.897 276.703 117.607 268.679L117.385 269.787C121.213 273.13 129.465 275.633 134.408 277.236C135.679 286.75 136.804 298.57 123.283 300.068C115.02 300.984 103.096 292.308 98.8816 285.635C97.8804 283.892 95.9564 281.482 94.7021 279.796C88.9093 274.12 81.2487 254.768 78.594 246.804C72.2604 230.358 70.5781 198.111 75.607 181.059L77.3296 177.328Z" fill="#41BDED"/>
<path d="M78.594 246.804C83.3072 246.977 84.4018 245.713 88.0174 242.832C88.4281 244.901 88.5569 246.455 89.6703 248.237L91.3597 247.758C96.6871 254.316 109.499 266.972 117.607 268.679L117.385 269.787C121.213 273.13 129.465 275.633 134.408 277.236C135.678 286.75 136.804 298.57 123.283 300.068C115.02 300.984 103.096 292.308 98.8815 285.635C97.8804 283.892 95.9564 281.482 94.7021 279.796C88.9093 274.12 81.2487 254.768 78.594 246.804Z" fill="#41BDED"/>
<path d="M78.594 246.804C83.3072 246.977 84.4018 245.713 88.0174 242.832C88.4281 244.901 88.5569 246.455 89.6703 248.237C92.4782 259.293 96.0679 268.218 102.046 278.033C99.0937 277.602 97.2007 278.159 94.7021 279.796C88.9093 274.12 81.2487 254.768 78.594 246.804Z" fill="#ACE7F6"/>
<path d="M94.7021 279.796C97.2008 278.159 99.0938 277.602 102.046 278.033C103.902 280.404 104.608 280.446 104.651 283.016C103.146 284.707 101.149 284.968 98.8816 285.635C97.8805 283.892 95.9565 281.482 94.7021 279.796Z" fill="#ACE7F6"/>
<path d="M77.3296 177.328C83.838 178.65 85.2628 183.515 85.4577 189.328C84.4357 193.158 84.1717 194.76 83.7445 198.711L83.8826 199.309C83.4626 213.725 83.7999 221.64 86.73 235.904L87.5658 237.843L88.3304 240.538L88.0175 242.832C84.4019 245.713 83.3072 246.977 78.594 246.804C72.2604 230.358 70.5781 198.111 75.607 181.059L77.3296 177.328Z" fill="white"/>
<path d="M83.7445 198.711L83.8826 199.309C83.4626 213.725 83.7999 221.64 86.7301 235.904C82.5348 230.165 79.4751 223.596 77.5289 216.781C75.1655 208.503 73.7227 201.347 83.7445 198.711Z" fill="#76D3F4"/>
<path d="M88.3303 240.538C95.199 249.509 107.697 264.959 119.853 266.916C143.346 270.696 187.529 269.995 203.903 249.56C202.867 256.037 203.124 252.982 199.368 258.686C178.791 272.056 140.897 276.703 117.607 268.679C109.499 266.972 96.6872 254.316 91.3598 247.758L89.6703 248.237C88.5569 246.455 88.4281 244.901 88.0175 242.832L88.3303 240.538Z" fill="#ACE7F6"/>
<path d="M251.875 197.639C254.696 199.386 257.269 200.929 259.913 202.947C260.252 210.228 259.351 229.407 255.476 235.482L254.438 235.656C253.882 234.425 253.498 233.702 253.201 232.358C253.514 219.144 253.196 210.785 251.875 197.639Z" fill="#63E7FA"/>
<path d="M84.5788 199.14L86.4186 199.763C87.7967 212.447 86.3568 221.491 88.8683 236.46C88.485 236.893 87.9981 237.513 87.5658 237.843L86.73 235.904C83.7999 221.64 83.4625 213.725 83.8826 199.309L84.5788 199.14Z" fill="#289BDD"/>
<path d="M228.525 201.398C245.178 199.827 242.132 213.519 229.177 219.886C215.625 221.292 214.88 207.844 228.525 201.398Z" fill="#DEF7FB"/>
<path d="M191.336 226.812C193.221 225.953 195.43 226.233 197.04 227.536C198.651 228.84 199.385 230.943 198.937 232.966C198.489 234.989 196.935 236.584 194.925 237.086C192.186 237.768 189.378 236.251 188.447 233.586C187.515 230.921 188.768 227.984 191.336 226.812Z" fill="#ACE7F6"/>
<path d="M130.166 250.578C136.936 250.872 139.375 254.791 136.893 261.131C129.739 261.365 127.732 256.84 130.166 250.578Z" fill="#76D3F4"/>
<path d="M92.3156 210.249C93.3125 209.754 94.4999 209.841 95.4141 210.477C96.3275 211.113 96.8224 212.196 96.7051 213.303C96.5879 214.41 95.8766 215.366 94.8502 215.795C93.3312 216.431 91.582 215.747 90.898 214.249C90.2133 212.752 90.8412 210.981 92.3156 210.249Z" fill="#76D3F4"/>
<path d="M204.491 34.9556L204.881 33.3319C210.548 26.6255 242.308 11.348 251.995 15.7616C256.366 17.753 257.986 29.583 258.906 34.6678C259.316 37.8023 259.973 41.9627 259.993 45.0238C261.609 55.31 259.764 67.0213 259.837 77.3449C256.666 74.5644 249.936 65.2616 248.873 61.0711C239.132 50.9129 232.676 47.036 220.689 40.0721C216.955 38.4045 214.968 37.9484 210.957 36.9563C209.225 38.4728 206.368 35.9973 204.491 34.9556Z" fill="#41BDED"/>
<path d="M204.491 34.9556L204.881 33.3319C210.548 26.6255 242.308 11.348 251.995 15.7616C256.366 17.753 257.986 29.583 258.906 34.6678C256.037 35.4822 254.331 36.4045 251.441 35.2707L250.884 29.201C241.329 28.1111 227.464 33.4606 220.689 40.0721C216.955 38.4045 214.968 37.9484 210.957 36.9563C209.225 38.4728 206.368 35.9973 204.491 34.9556Z" fill="white"/>
<path d="M210.957 36.9563C211.491 36.5822 212.038 36.2275 212.597 35.8937C218.779 32.1722 240.597 22.8191 248.241 24.7845C250.483 26.6766 249.739 25.8773 250.884 29.201C241.329 28.1111 227.464 33.4606 220.689 40.0721C216.955 38.4045 214.968 37.9484 210.957 36.9563Z" fill="#76D3F4"/>
<path d="M258.906 34.6678C259.316 37.8023 259.973 41.9627 259.993 45.0238C261.608 55.31 259.764 67.0213 259.837 77.3449C256.666 74.5644 249.936 65.2616 248.873 61.0711C252.304 55.9819 251.149 42.8231 251.369 36.0232L251.441 35.2707C254.331 36.4045 256.037 35.4822 258.906 34.6678Z" fill="#76D3F4"/>
<path d="M258.906 34.6678C259.316 37.8023 259.973 41.9627 259.993 45.0238L259.563 57.7596C256.854 56.2071 254.426 54.3251 251.912 52.4733C251.994 47.0007 252.233 41.4152 251.369 36.0232L251.441 35.2707C254.33 36.4045 256.037 35.4822 258.906 34.6678Z" fill="#ACE7F6"/>
<path d="M76.1723 26.2435C78.005 15.6775 78.379 2.82728 93.1672 6.98046C103.784 9.96171 127.084 22.5054 133.693 31.4362L133.802 32.3707C133.234 32.524 129.943 33.1959 129.72 33.0513C115.096 23.5529 105.648 16.212 87.9793 13.1314C87.2392 15.8256 86.771 19.6328 86.3359 22.4982L85.8346 25.6751C85.352 31.9772 84.8744 38.0678 85.4613 44.395C83.2072 45.0698 79.073 46.0252 77.4382 47.2892C76.6319 47.8921 76.6327 48.0396 75.7264 48.3309C75.4948 41.731 75.6588 32.77 76.1723 26.2435Z" fill="white"/>
<path d="M79.5686 33.8499C83.2561 31.1887 84.3803 29.9614 85.8346 25.6752C85.352 31.9772 84.8744 38.0678 85.4613 44.395C83.2072 45.0698 79.073 46.0252 77.4382 47.2892C76.6319 47.8921 76.6327 48.0396 75.7264 48.3309C75.4948 41.731 75.6588 32.77 76.1723 26.2435C76.6902 30.5564 76.3471 30.9758 79.5686 33.8499Z" fill="#ACE7F6"/>
<path d="M75.7264 48.3309C75.4948 41.731 75.6588 32.77 76.1723 26.2435C76.6902 30.5564 76.3471 30.9758 79.5686 33.8499C79.1737 37.6721 78.622 43.7454 77.4382 47.2892C76.6319 47.8921 76.6327 48.0396 75.7264 48.3309Z" fill="#DEF7FB"/>
<path d="M86.3359 22.4982C98.1522 24.5327 108.965 31.4672 117.073 40.1462C103.06 47.7734 100.055 49.4583 87.5485 59.4977C86.3388 53.964 85.9914 49.9964 85.4613 44.395C84.8744 38.0678 85.352 31.9772 85.8346 25.6752L86.3359 22.4982Z" fill="#41BDED"/>
<path d="M208.863 211.217C186.873 214.727 170.306 218.631 147.519 214.107C144.594 213.526 139.331 213.133 137.044 211.75C137.991 211.452 143.771 212.807 145.641 212.913C165.984 214.07 183.65 201.568 202.647 197.521L203.716 199.317L207.124 199.664L205.92 200.324C207.725 200.612 209.2 201.919 209.703 203.677C210.207 205.434 209.649 207.324 208.272 208.526L208.863 211.217Z" fill="#289BDD"/>
<path d="M205.92 200.324C207.725 200.612 209.2 201.919 209.703 203.677C210.207 205.434 209.649 207.324 208.272 208.526C206.626 209.962 204.208 210.078 202.432 208.805C200.656 207.532 199.988 205.204 200.82 203.183C201.651 201.163 203.762 199.978 205.92 200.324Z" fill="#41BDED"/>
<path d="M305.493 139.094C306.189 140.708 307.288 144.326 307.725 145.17C301.687 161.526 274.82 181.102 259.761 189.613L259.913 202.947C257.269 200.929 254.696 199.386 251.875 197.639L251.275 193.119C251.828 188.715 250.466 180.754 253.527 177.93C257.105 179.484 255.716 182.52 259.467 184.417C267.598 181.928 289.851 162.487 295.355 154.716C298.76 149.909 301.754 143.149 305.493 139.094Z" fill="#ACE7F6"/>
<path d="M272.657 124.436C293.026 105.691 318.293 120.112 307.725 145.17C307.288 144.326 306.189 140.708 305.493 139.094C305.429 137.216 305.273 135.343 305.025 133.481C304.151 127.327 300.797 125.152 296.19 121.759C291.117 120.979 280.52 120.826 277.259 125.228C278.601 126.224 278.713 126.524 279.337 127.985C274.982 127.71 274.909 127.945 272.657 124.436Z" fill="white"/>
<path d="M31.2185 131.126C25.9616 107.068 47.3755 99.141 65.3716 113.57L64.2373 116.203L63.6512 116.037C52.8015 112.89 38.8489 105.837 34.7637 123.478C34.6378 124 34.5299 124.527 34.4414 125.057C33.5863 126.845 32.383 129.645 31.2185 131.126Z" fill="white"/>
<path d="M76.004 75.2478C78.5034 75.8924 79.4715 75.7241 81.1876 77.3456C77.9769 89.198 73.1709 94.5036 71.0686 109.899C69.1792 108.472 66.7776 106.361 64.9076 104.806C67.4285 91.6361 69.1461 86.8059 76.004 75.2478Z" fill="white"/>
<path d="M31.2185 131.126C32.383 129.645 33.5862 126.845 34.4414 125.057C34.8686 127.201 35.4476 132.105 35.8928 133.572C40.2514 147.943 51.2565 158.945 63.6705 166.81C65.9138 168.232 76.3716 174.9 77.4195 176.818L77.3296 177.328L75.607 181.059C74.644 177.442 71.8504 175.969 68.8757 174.025C55.0584 164.996 34.0983 148.191 31.2185 131.126Z" fill="#ACE7F6"/>
<path d="M263.855 123.77C263.485 115.261 263.532 107.602 262.632 99.0417C262.227 95.1821 259.932 82.4254 260.919 79.965C266.525 93.8065 269.487 102.85 269.317 117.975L263.855 123.77Z" fill="white"/>
<path d="M203.772 197.668C214.395 192.953 234.435 191.153 245.637 195.284C242.134 196.068 230.436 194.848 224.976 195.375C221.321 195.727 205.619 198.112 203.772 197.668Z" fill="#289BDD"/>
<path d="M65.3715 113.57L65.7951 114.469C67.025 120.01 72.7379 118.464 72.1783 125.297C68.7584 128.504 63.9143 122.128 63.4475 119.284L64.2372 116.203L65.3715 113.57Z" fill="#ACE7F6"/>
<path d="M77.4195 176.818C80.1749 176.239 82.5139 175.451 85.1305 176.5C89.1517 180.058 86.9034 184.772 85.4577 189.328C85.2628 183.515 83.838 178.65 77.3296 177.328L77.4195 176.818Z" fill="#ACE7F6"/>
<path d="M272.312 124.911L272.658 124.436C274.909 127.945 274.982 127.71 279.337 127.985C277.146 129.825 272.081 133.523 269.425 134.402L268.749 133.753C269.53 129.712 271.559 128.762 272.312 124.911Z" fill="#ACE7F6"/>
<path d="M247.953 195.818C248.434 193.208 246.934 185.618 248.971 183.889C250.504 186.171 250.735 190.092 251.275 193.119L251.875 197.639L247.953 195.818Z" fill="#63E7FA"/>
<path d="M170.629 97.305L175.094 103.006L175.992 103.308C182.169 105.352 185.349 103.189 189.744 104.558C191.095 106.068 191.04 106.589 191.492 108.657C193.773 118.971 190.305 132.997 181.536 139.479C172.883 145.876 161.742 143.908 155.421 135.32C148.964 126.548 149.246 116.919 150.638 106.656C151.55 103.596 150.909 103.868 152.945 102.704C160.955 103.116 163.376 103.837 169.263 98.5518C169.722 98.1396 170.177 97.7237 170.629 97.305Z" fill="#C94D6D"/>
<path d="M170.628 97.305L175.093 103.006L175.992 103.308C182.169 105.352 185.349 103.189 189.744 104.558C191.095 106.068 191.04 106.589 191.492 108.657C184.673 113.585 177.266 110.198 170.485 107.563C162.318 109.738 158.271 110.308 150.638 106.656C151.55 103.596 150.909 103.868 152.945 102.704C160.955 103.116 163.376 103.837 169.263 98.5518C169.721 98.1396 170.177 97.7237 170.628 97.305Z" fill="#1B477E"/>
<path d="M166.312 118.814C175.653 118.621 180.123 121.101 185.801 128.27C182.351 134.706 180.8 137.126 173.878 139.691C160.948 141.134 158.372 135.092 153.478 125.17C158.51 120.879 159.851 120.195 166.312 118.814Z" fill="#FC808E"/>
<path d="M100.625 163.275C117.584 161.627 119.204 182.468 106.78 189.482C106.526 189.514 106.272 189.547 106.017 189.58C103.164 189.88 100.313 188.992 98.1343 187.125C90.6506 180.734 94.7582 169.32 100.625 163.275Z" fill="white"/>
<path d="M118.45 81.3549C120.1 81.1866 121.756 81.0974 123.415 81.0866C133.313 81.0902 147.256 96.1576 140.898 101.991C136.201 101.849 135.108 96.8489 129.871 93.3245L129.275 92.9317C114.051 87.6462 112.727 102.662 104.175 98.8014C101.213 91.7354 112.937 83.8901 118.45 81.3549Z" fill="#1B477E"/>
<path d="M215.771 86.3592C223.08 85.916 227.663 87.6318 232.583 93.121C235.408 96.2734 239.649 103.046 235.476 106.414C230.332 106.489 227.65 100.815 221.846 97.5396L221.192 97.1777C210.283 95.1555 204.886 105.791 198.04 103.616C197.288 95.6864 209.562 88.7369 215.771 86.3592Z" fill="#1B477E"/>
<path d="M94.6237 104.433C108.435 103.255 123.675 115.388 105.399 121.225C88.7871 122.729 76.5687 109.724 94.6237 104.433Z" fill="#FDABAF"/>
<path d="M237.001 110.203C251.9 109.008 263.274 120.17 245.209 126.59C229.226 127.872 217.662 116.244 237.001 110.203Z" fill="#FDABAF"/>
<path d="M136.363 39.6894C140.441 39.4354 143.697 39.3361 145.933 42.9728C145.899 49.8942 137.395 52.459 132.031 53.7863C127.456 54.128 123.613 54.915 121.696 50.0446C122.649 42.8886 130.486 40.8253 136.363 39.6894Z" fill="white"/>
<path d="M111.546 53.0762C114.298 53.223 115.429 53.9985 116.933 56.0833C117.244 62.6386 106.825 69.2587 101.787 71.968C99.1448 71.9608 98.7427 71.9968 96.6325 70.4551C93.8605 62.5545 105.633 55.7611 111.546 53.0762Z" fill="white"/>
<path d="M289.661 123.695C296.874 123.804 304.128 126.468 298.48 134.578C293.218 134.679 288.821 133.861 287.12 128.356C287.756 125.245 287.29 126.421 289.661 123.695Z" fill="white"/>
<path d="M41.7366 115.788C44.4194 115.675 45.0739 115.41 47.241 116.729C49.9511 120.992 47.6013 123.413 44.364 126.422C42.097 126.632 41.8244 126.613 39.7479 125.69C36.5049 121.678 38.7906 119.113 41.7366 115.788Z" fill="white"/>
<path d="M124.361 187.34C131.175 189.25 131.954 191.904 127.933 197.884C125.825 197.8 125.754 197.811 123.741 197.227C120.319 193.544 121.557 191.214 124.361 187.34Z" fill="white"/>
<path d="M156.019 36.5376C159.979 36.7563 161.69 36.4793 163.454 40.1303C163.271 42.6044 162.78 42.8368 161.033 44.8231C157.318 44.8835 154.969 44.931 153.333 41.408C154.005 38.2124 153.57 39.398 156.019 36.5376Z" fill="white"/>
<path d="M206.249 242.782C212.475 235.091 219.868 227.927 230.286 226.807C235.472 226.199 240.684 227.72 244.729 231.021C261.194 244.514 246.584 273.095 229.588 279.619C215.159 284.281 205.542 281.404 200.212 266.894C199.43 264.236 199.487 261.48 199.369 258.686C203.124 252.982 202.867 256.037 203.903 249.56C204.27 246.481 204.91 245.485 206.249 242.782Z" fill="#41BDED"/>
<path d="M206.249 242.782C212.475 235.091 219.868 227.927 230.286 226.807C235.472 226.199 240.684 227.72 244.729 231.021C261.194 244.514 246.584 273.095 229.588 279.619C227.701 277.325 228.274 276.914 228.654 274.228C235.078 271.136 238.63 266.839 242.082 260.673C244.94 255.567 247.856 245.149 240.572 242.278C235.831 242.59 233.486 241.632 229.34 239.674C217.734 239.237 208.529 243.996 204.397 255.321C199.974 259.215 202.714 262.08 200.212 266.894C199.43 264.236 199.487 261.48 199.369 258.686C203.124 252.982 202.867 256.037 203.903 249.56C204.27 246.481 204.91 245.485 206.249 242.782Z" fill="#ACE7F6"/>
<path d="M229.34 239.674C228.281 237.285 227.666 236.361 228.034 233.71C232.556 227.089 245.397 232.204 240.572 242.278C235.831 242.59 233.486 241.632 229.34 239.674Z" fill="white"/>
<path d="M200.212 266.894C202.714 262.08 199.974 259.215 204.397 255.321C204.865 262.349 205.576 266.08 210.989 270.974C215.336 274.904 223.282 276.292 228.654 274.228C228.274 276.914 227.701 277.325 229.588 279.619C215.159 284.281 205.542 281.404 200.212 266.894Z" fill="#76D3F4"/>
<path d="M279.185 216.812C284.497 212.828 292.14 208.995 298.733 210.516C314.079 214.054 297.865 232.73 295.023 237.514C286.289 247.064 272.14 254.283 259.493 257.184C268.648 238.908 260.322 236.807 277.448 218.49L279.185 216.812Z" fill="#41BDED"/>
<path d="M279.184 216.812C284.497 212.828 292.14 208.995 298.733 210.516C314.079 214.054 297.865 232.73 295.023 237.514C292.677 233.886 292.936 232.853 293.082 228.63C290.518 226.912 278.8 219.816 277.448 218.49L279.184 216.812Z" fill="white"/>
<path d="M277.448 218.49L279.184 216.812C289.146 217.967 291.709 218.305 293.082 228.63C290.518 226.912 278.8 219.816 277.448 218.49Z" fill="#ACE7F6"/>
<path d="M143.081 306.712C158.992 305.324 246.446 305.966 251.116 317.482C247.115 323.384 210.054 324.336 201.283 324.992C185.39 325.563 100.083 329.097 93.1399 317.973L93.7347 316.221C101.235 308.857 131.751 307.462 143.081 306.712Z" fill="#ACE7F6"/>
<path d="M308.976 31.2751C310.463 32.2765 311.742 36.3549 312.296 38.1268C315.023 46.841 321.529 49.3511 329.261 52.9086C321.291 56.6409 313.807 59.679 312.292 68.4429C311.837 71.0752 310.773 75.6255 309.168 77.6053C308.511 76.5025 307.086 70.9687 306.315 69.0882C302.097 58.7991 298.468 57.574 289.178 53.5438L290.108 53.0999C302.751 47.0331 304.415 44.2979 308.976 31.2751Z" fill="#76D3F4"/>
<path d="M24.503 31.8858C29.9196 34.6484 23.9406 44.4109 43.4895 51.6381C27.6583 60.6171 31.5566 59.7308 26.6579 74.5903L26.4917 75.0787C18.9836 68.8896 28.8465 62.4919 6.97229 53.7078C8.63733 52.8891 10.288 52.0424 11.9243 51.1683C20.4098 46.6022 21.944 40.4303 24.503 31.8858Z" fill="#76D3F4"/>
<path d="M330.902 73.7198C335.414 77.2111 330.962 82.3369 344.119 87.9167C335.295 92.4943 334.165 93.3252 331.715 103.122C326.848 99.0172 332.172 95.5194 318.247 88.4836C326.129 84.3836 328.174 82.0405 330.902 73.7198Z" fill="#76D3F4"/>
<path d="M36.8667 185.464C37.7484 185.445 38.5842 185.448 39.466 185.535C43.1032 185.915 46.4023 187.84 48.5233 190.819C51.6096 195.202 48.4522 197.565 45.0128 199.49C37.8161 197.738 25.9982 193.153 36.8667 185.464Z" fill="#76D3F4"/>
<path d="M301.111 260.36C305.588 260.17 307.705 260.925 308.988 265.176C307.863 271.073 304.734 271.975 299.616 273.343C296.948 273.473 296.563 273.346 294.004 272.529C292.033 270.628 292.481 271.587 292.251 268.967C294.386 263.959 296.527 263.096 301.111 260.36Z" fill="#76D3F4"/>
<path d="M7.69801 76.6888C8.54024 77.7291 9.13433 79.8283 10.3462 81.1412C11.935 82.8621 13.7238 84.5664 15.2292 86.3426C15.4967 86.6584 16.0333 88.0555 15.9362 88.1376C11.4388 91.926 9.91686 92.1612 8.41725 98.0835L8.22737 98.8539C6.60477 97.0763 6.92914 94.9648 4.33413 92.5914C2.68276 91.0814 0.590495 89.3361 0 87.2498C4.56069 82.765 5.00806 82.5441 7.69801 76.6888Z" fill="#76D3F4"/>
<path d="M270.027 276.156C272.791 275.96 273.742 275.652 276.214 276.9C279.211 280.975 275.59 283.161 272.367 285.403C269.456 285.714 268.232 285.546 265.912 283.848C263.748 279.38 266.591 278.102 270.027 276.156Z" fill="#76D3F4"/>
</svg>
